PathFileType	3	(X/Y/Z)	E:\ViconData\BIOM9541 2025\Week 7\Wed1100\Hanif 90 squat 5 Squat 01.trc
DataRate	CameraRate	NumFrames	NumMarkers	Units	OrigDataRate	OrigDataStartFrame	OrigNumFrames
200.0	200.0	11	19	mm	200.0	232	1853	
Frame#	Time	C7			CLAV			RBAK			LASI			RASI			LPSI			RPSI			LTHI			LKNE			LTIB			LANK			LHEE			LTOE			RTHI			RKNE			RTIB			RANK			RHEE			RTOE			
		X1	Y1	Z1	X2	Y2	Z2	X3	Y3	Z3	X4	Y4	Z4	X5	Y5	Z5	X6	Y6	Z6	X7	Y7	Z7	X8	Y8	Z8	X9	Y9	Z9	X10	Y10	Z10	X11	Y11	Z11	X12	Y12	Z12	X13	Y13	Z13	X14	Y14	Z14	X15	Y15	Z15	X16	Y16	Z16	X17	Y17	Z17	X18	Y18	Z18	X19	Y19	Z19	
232	1.155	338.86142	1071.5748	-1203.5249	192.59113	988.79987	-1202.3191	363.9136	991.08545	-1349.47	284.85709	628.65887	-1079.0288	275.51837	645.1828	-1338.4407	450.90256	697.99554	-1163.2546	449.95023	696.08557	-1237.3755	188.53275	469.32559	-923.30389	104.54639	362.42731	-889.25269	213.30692	187.06383	-917.7395	299.04926	63.622086	-972.04633	324.84311	53.955795	-1033.9138	162.80588	39.632008	-945.01111	301.7301	574.10938	-1421.5656	109.73174	357.63861	-1509.736	144.75589	280.05243	-1510.8604	291.59256	70.693535	-1434.9978	320.39343	51.020966	-1367.0831	164.29395	41.416077	-1463.0219
233	1.16	338.70248	1067.8302	-1203.5215	192.52065	985.09436	-1202.1373	363.78876	987.42542	-1349.5879	285.41876	625.177	-1079.0399	275.81158	641.69843	-1338.4875	451.35062	694.46277	-1163.2993	450.29395	692.47675	-1237.5376	188.74739	468.2951	-922.97003	104.10317	361.81799	-888.57098	212.99216	186.72139	-917.50214	299.5314	64.313828	-972.00098	324.65173	54.127445	-1034.0391	162.78677	39.698448	-944.92493	302.19315	571.96423	-1421.7701	109.11158	357.00299	-1510.854	144.27542	279.43747	-1511.7543	291.47522	70.699219	-1435.0323	320.22379	51.160736	-1366.9039	164.28342	41.506649	-1463.2095
234	1.165	338.58047	1064.1244	-1203.6217	192.9521	980.89471	-1202.7927	363.62769	983.78711	-1349.6215	285.96918	621.69122	-1078.9727	276.12405	638.22009	-1338.5579	451.82642	690.99042	-1163.4572	450.61514	688.73181	-1237.7618	188.48903	466.72855	-922.40552	103.65372	361.25119	-887.79669	212.67346	186.37466	-917.22443	299.63663	64.24791	-972.31165	324.50873	54.196362	-1034.158	162.71468	39.723324	-944.67798	302.66565	569.7558	-1421.8497	108.54731	356.37027	-1511.9399	143.72928	278.79077	-1512.5349	291.42743	70.724129	-1435.0397	320.07855	51.24577	-1366.7251	164.287	41.560627	-1463.3455
235	1.17	338.46765	1060.4905	-1203.6818	192.94295	977.15021	-1202.6443	363.44797	980.0899	-1349.7462	286.38248	618.38031	-1078.9009	276.47623	634.73035	-1338.595	452.28558	687.43207	-1163.76	451.10913	685.46283	-1238.0206	188.59163	465.57678	-922.12115	103.19418	360.75812	-887.03601	212.3206	186.11664	-916.91406	302.14828	65.692184	-975.91455	324.34137	54.247452	-1034.3047	162.733	39.665203	-944.42859	303.27658	567.50446	-1421.9452	108.048	355.60519	-1512.9573	143.29102	278.15933	-1513.3729	291.39554	70.649002	-1435.0415	319.95474	51.289104	-1366.6394	164.2879	41.531982	-1463.452
236	1.175	338.34424	1056.825	-1203.7614	193.15086	973.12042	-1202.5737	363.35126	976.60297	-1349.9215	286.95764	615.06964	-1079.0931	276.77158	631.26031	-1338.6919	452.7854	683.96973	-1164.2092	451.5647	682.06732	-1238.2944	188.95453	464.92697	-921.90271	102.80531	360.31253	-886.39874	212.00771	185.86235	-916.61499	302.13727	65.733757	-976.09857	324.25079	54.256996	-1034.4663	162.77361	39.481922	-944.10681	303.89615	565.24219	-1422.0381	107.59991	354.86987	-1513.9779	142.83505	277.49237	-1514.095	291.36624	70.559265	-1435.0435	319.86407	51.301224	-1366.7122	164.29611	41.475399	-1463.5696
237	1.18	338.21042	1053.1927	-1203.87	192.97649	969.4259	-1202.7363	363.12152	973.0365	-1350.0406	287.35059	611.78516	-1078.9478	277.14197	627.80017	-1338.7383	453.26242	680.61359	-1164.7019	451.98196	678.70679	-1238.5525	188.83476	463.49939	-921.5882	102.39079	359.89435	-885.64893	211.73683	185.64497	-916.33661	301.69379	65.170433	-976.20551	323.56699	54.049541	-1034.5533	162.80719	39.406372	-943.91486	304.47864	563.06659	-1422.1578	107.17066	354.12708	-1514.8944	142.41435	276.8959	-1514.8632	291.31589	70.472061	-1435.0448	319.72656	51.309006	-1366.5626	164.31496	41.420452	-1463.6746
238	1.185	338.06104	1049.6337	-1204.0446	192.83549	965.80481	-1202.7358	362.87967	969.48273	-1350.2511	287.94308	608.54639	-1079.2488	277.41931	624.48279	-1338.9125	453.66077	677.26343	-1164.6521	452.29602	675.36188	-1238.7139	189.05325	462.54855	-921.47943	102.07032	359.51938	-884.87976	211.53242	185.37917	-916.12689	298.8476	67.494606	-965.65405	323.43201	54.082218	-1034.6539	162.80714	39.412025	-943.74249	305.16382	560.80902	-1422.2345	106.71775	353.5795	-1515.8965	141.981	276.34909	-1515.6234	291.23688	70.448853	-1435.0573	319.56949	51.412285	-1366.4196	164.29607	41.401669	-1463.7888
239	1.19	337.89301	1046.069	-1204.175	192.69598	962.24695	-1202.8033	362.62613	966.00745	-1350.395	288.33072	605.26013	-1079.1593	277.68265	621.22498	-1338.9905	453.99597	673.98401	-1164.5521	452.61777	671.92883	-1238.8807	189.13837	461.47961	-921.20483	101.77273	358.99786	-884.30597	211.3037	185.1339	-915.88818	298.7999	67.477791	-965.672	323.36029	54.2757	-1034.8062	162.82111	39.384014	-943.57385	305.81949	558.65527	-1422.3704	106.27083	353.008	-1516.8146	141.54898	275.84903	-1516.2941	291.13855	70.477303	-1435.043	319.39822	51.494015	-1366.2441	164.24867	41.413681	-1463.8871
240	1.195	337.70932	1042.551	-1204.2993	191.55386	959.63409	-1202.3646	362.41296	962.57056	-1350.6022	288.806	602.09717	-1079.3387	278.02759	618.00842	-1339.1432	454.34525	670.76825	-1164.6974	452.90091	668.64978	-1238.9518	189.39674	460.47745	-921.0802	101.46437	358.56052	-883.70886	211.13315	184.9084	-915.68091	298.73663	67.476273	-965.69336	323.30624	54.330074	-1034.8855	162.82599	39.389835	-943.49646	306.50717	556.49603	-1422.4192	105.90366	352.43735	-1517.7277	141.16914	275.37994	-1517.0433	291.05948	70.460991	-1435.04	319.24963	51.545902	-1366.1178	164.2282	41.38205	-1463.9558
241	1.2	337.53015	1039.0729	-1204.4448	191.35336	956.13171	-1202.3889	362.09113	959.16437	-1350.733	289.17047	598.87634	-1079.3309	278.35321	614.77704	-1339.3303	454.74808	667.55658	-1165.0656	453.28281	665.37225	-1239.0963	189.65544	459.6893	-920.92004	101.19495	358.23413	-883.06824	210.94125	184.75786	-915.39417	298.66864	67.467827	-965.73621	323.22305	54.292633	-1034.9135	162.83978	39.362175	-943.50946	307.24265	554.3255	-1422.5172	105.5089	351.86594	-1518.608	140.77505	274.82605	-1517.6741	291.00363	70.374649	-1435.0427	319.61343	51.763626	-1366.5641	164.23805	41.283592	-1464.0516
242	1.205	337.33386	1035.6136	-1204.579	191.84329	952.1109	-1203.0942	361.79691	955.72858	-1350.9182	289.60486	595.84113	-1079.5251	278.71353	611.48358	-1339.4064	455.15863	664.35144	-1165.3209	453.60672	662.2403	-1239.2048	188.93413	459.00528	-919.98682	100.88667	357.87457	-882.4754	210.74596	184.63611	-915.16748	298.86392	67.00721	-966.83472	323.14572	54.198536	-1034.9213	162.85654	39.314491	-943.50055	307.92392	552.06146	-1422.4927	105.21967	351.25949	-1519.4382	140.46875	274.26645	-1518.3131	290.95251	70.262993	-1435.0178	319.49054	51.811489	-1366.4932	164.23384	41.237026	-1464.22
